<svg xmlns="http://www.w3.org/2000/svg" aria-hidden="true" style="position:absolute;width:0;height:0;overflow:hidden">
  <symbol id="icon-wall" viewBox="0 0 24 24"><path fill="none" stroke="currentColor" stroke-width="2.2" d="M4 20V8l8-4 8 4v12"/><path fill="none" stroke="currentColor" stroke-width="2.2" d="M4 12h16"/></symbol>
  <symbol id="icon-bridge" viewBox="0 0 24 24"><path fill="none" stroke="currentColor" stroke-width="2.2" d="M3 16h18"/><path fill="none" stroke="currentColor" stroke-width="2.2" d="M6 16V11c2-3 4-3 6 0s4 3 6 0V16"/></symbol>
  <symbol id="icon-tunnel" viewBox="0 0 24 24"><path fill="none" stroke="currentColor" stroke-width="2.2" d="M4 12a8 8 0 0 1 16 0"/><path fill="none" stroke="currentColor" stroke-width="2.2" d="M8 12v5h8v-5"/></symbol>
  <symbol id="icon-slope" viewBox="0 0 24 24"><path fill="none" stroke="currentColor" stroke-width="2.2" d="M4 20h16"/><path fill="none" stroke="currentColor" stroke-width="2.2" d="M4 20 14 8l6 12"/></symbol>
  <symbol id="icon-water" viewBox="0 0 24 24"><path fill="none" stroke="currentColor" stroke-width="2.2" d="M12 3c3 4 7 7 7 11a7 7 0 1 1-14 0c0-4 4-7 7-11z"/></symbol>
  <symbol id="icon-hub" viewBox="0 0 24 24"><circle cx="12" cy="12" r="2.5" fill="currentColor"/><path fill="none" stroke="currentColor" stroke-width="2.2" d="M12 3v4M12 17v4M3 12h4M17 12h4M5.6 5.6l2.8 2.8M15.6 15.6l2.8 2.8M5.6 18.4l2.8-2.8M15.6 8.4l2.8-2.8"/></symbol>
  <symbol id="icon-map" viewBox="0 0 24 24"><path fill="none" stroke="currentColor" stroke-width="2.2" d="M4 6l6-2 6 2 4-1v13l-6 2-6-2-4 1V6z"/><path fill="none" stroke="currentColor" stroke-width="2.2" d="M10 4v13M16 6v13"/></symbol>
  <symbol id="icon-chart" viewBox="0 0 24 24"><path fill="none" stroke="currentColor" stroke-width="2.2" d="M4 19h16"/><path fill="none" stroke="currentColor" stroke-width="2.2" d="M7 16V11M12 16V7M17 16v-4"/></symbol>
  <symbol id="icon-bell" viewBox="0 0 24 24"><path fill="none" stroke="currentColor" stroke-width="2.2" d="M6 17h12l-1.2-2H7.2L6 17z"/><path fill="none" stroke="currentColor" stroke-width="2.2" d="M10 19a2 2 0 0 0 4 0"/><path fill="none" stroke="currentColor" stroke-width="2.2" d="M12 4a4 4 0 0 1 4 4v3H8V8a4 4 0 0 1 4-4z"/></symbol>
  <symbol id="icon-build" viewBox="0 0 24 24"><path fill="none" stroke="currentColor" stroke-width="2.2" d="M4 20h16"/><path fill="none" stroke="currentColor" stroke-width="2.2" d="M8 20V10l4-2 4 2v10"/><path fill="none" stroke="currentColor" stroke-width="2.2" d="M11 14h2"/></symbol>
  <symbol id="icon-auto" viewBox="0 0 24 24"><path fill="none" stroke="currentColor" stroke-width="2.2" d="M4 7h16"/><path fill="none" stroke="currentColor" stroke-width="2.2" d="M7 7v10M17 7v10"/><circle cx="7" cy="17" r="2" fill="none" stroke="currentColor" stroke-width="2.2"/><circle cx="17" cy="17" r="2" fill="none" stroke="currentColor" stroke-width="2.2"/></symbol>
  <symbol id="icon-drill" viewBox="0 0 24 24"><path fill="none" stroke="currentColor" stroke-width="2.2" d="M12 3v14"/><path fill="none" stroke="currentColor" stroke-width="2.2" d="M8 17h8"/><path fill="none" stroke="currentColor" stroke-width="2.2" d="M10 7h4"/></symbol>
  <symbol id="icon-load" viewBox="0 0 24 24"><path fill="none" stroke="currentColor" stroke-width="2.2" d="M5 18h14"/><path fill="none" stroke="currentColor" stroke-width="2.2" d="M12 6v8"/><path fill="none" stroke="currentColor" stroke-width="2.2" d="M8 14h8"/></symbol>
  <symbol id="icon-cable" viewBox="0 0 24 24"><path fill="none" stroke="currentColor" stroke-width="2.2" d="M4 8c4 0 4 8 8 8s4-8 8-8"/></symbol>
  <symbol id="icon-terrain" viewBox="0 0 24 24"><path fill="none" stroke="currentColor" stroke-width="2.2" d="M3 18h18"/><path fill="none" stroke="currentColor" stroke-width="2.2" d="M3 18l5-8 4 6 3-4 6 6"/></symbol>
  <symbol id="icon-calendar" viewBox="0 0 24 24"><rect x="4" y="6" width="16" height="14" rx="2" fill="none" stroke="currentColor" stroke-width="2.2"/><path fill="none" stroke="currentColor" stroke-width="2.2" d="M8 4v4M16 4v4M4 10h16"/></symbol>
  <symbol id="icon-badge" viewBox="0 0 24 24"><path fill="none" stroke="currentColor" stroke-width="2.2" d="M12 3l2.2 4.5 5 .7-3.6 3.5.9 5L12 14.8 7.5 16.7l.9-5L4.8 8.2l5-.7L12 3z"/></symbol>
  <symbol id="icon-layers" viewBox="0 0 24 24"><path fill="none" stroke="currentColor" stroke-width="2.2" d="M12 4 4 8l8 4 8-4-8-4z"/><path fill="none" stroke="currentColor" stroke-width="2.2" d="M4 12l8 4 8-4"/><path fill="none" stroke="currentColor" stroke-width="2.2" d="M4 16l8 4 8-4"/></symbol>
  <symbol id="icon-chip" viewBox="0 0 24 24"><rect x="7" y="7" width="10" height="10" rx="1.5" fill="none" stroke="currentColor" stroke-width="2.2"/><path fill="none" stroke="currentColor" stroke-width="2.2" d="M10 3v4M14 3v4M10 17v4M14 17v4M3 10h4M3 14h4M17 10h4M17 14h4"/></symbol>
  <symbol id="icon-doc" viewBox="0 0 24 24"><path fill="none" stroke="currentColor" stroke-width="2.2" d="M8 4h8l4 4v12H8V4z"/><path fill="none" stroke="currentColor" stroke-width="2.2" d="M16 4v4h4"/></symbol>
  <symbol id="icon-factory" viewBox="0 0 24 24"><path fill="none" stroke="currentColor" stroke-width="2.2" d="M3 20h18"/><path fill="none" stroke="currentColor" stroke-width="2.2" d="M5 20V10l4 2V8l4 2V6l4 2v12"/></symbol>
  <symbol id="icon-patent" viewBox="0 0 24 24"><path fill="none" stroke="currentColor" stroke-width="2.2" d="M8 4h8l4 4v12H8V4z"/><path fill="none" stroke="currentColor" stroke-width="2.2" d="M12 11v5"/><path fill="none" stroke="currentColor" stroke-width="2.2" d="M10 13h4"/></symbol>
  <symbol id="icon-pin" viewBox="0 0 24 24"><path fill="none" stroke="currentColor" stroke-width="2.2" d="M12 21s6-5.2 6-10a6 6 0 1 0-12 0c0 4.8 6 10 6 10z"/><circle cx="12" cy="11" r="2" fill="none" stroke="currentColor" stroke-width="2.2"/></symbol>
</svg>
